<?xml version="1.0" encoding="utf-8"?>
<svg xmlns="http://www.w3.org/2000/svg"
	xmlns:xlink="http://www.w3.org/1999/xlink"
	width="113px" height="19px" viewBox="0 0 113 19">
<filter filterUnits="objectBoundingBox" x="0.00" y="0.00" width="100.00" height="100.00" id="filter0">
<feFlood flood-color="rgb(49,57,69)" result="coFloodOut1"/>
<feComposite in="coFloodOut1" in2="SourceAlpha" operator="in" result="coOverlay1"/>
<feBlend in="coOverlay1" in2="SourceGraphic" mode="normal" result="colorOverlay1"/>
</filter>
<path fillRule="evenodd" d="M 105.87 12.1C 105.87 12.1 105.87 19 105.87 19 105.87 19 101 19 101 19 101 19 101 12.1 101 12.1 101 12.1 94.15 0.25 94.15 0.25 94.15 0.25 99.82 0.25 99.82 0.25 99.82 0.25 103.42 6.5 103.42 6.5 103.42 6.5 107.05 0.25 107.05 0.25 107.05 0.25 112.72 0.25 112.72 0.25 112.72 0.25 105.87 12.1 105.87 12.1ZM 85.65 14.03C 86.92 14.03 88.02 13.58 88.8 12.78 88.8 12.78 92.3 16.23 92.3 16.23 90.6 17.92 88.25 19 85.65 19 80.47 19 76.27 14.8 76.27 9.63 76.27 4.45 80.47 0.25 85.65 0.25 88.22 0.25 90.55 1.28 92.25 2.98 92.25 2.98 88.8 6.45 88.8 6.45 88.02 5.68 86.92 5.23 85.65 5.23 83.1 5.23 81.25 7.08 81.25 9.63 81.25 12.18 83.1 14.03 85.65 14.03ZM 63.32 10.13C 63.32 10.13 63.32 19 63.32 19 63.32 19 58.4 19 58.4 19 58.4 19 58.4 0.25 58.4 0.25 58.4 0.25 60.4 0.25 60.4 0.25 60.4 0.25 69.27 9.1 69.27 9.1 69.27 9.1 69.27 0.25 69.27 0.25 69.27 0.25 74.2 0.25 74.2 0.25 74.2 0.25 74.2 19 74.2 19 74.2 19 72.17 19 72.17 19 72.17 19 63.32 10.13 63.32 10.13ZM 47.25 19C 43.12 19 39.85 15.73 39.85 11.6 39.85 11.6 39.85 0.25 39.85 0.25 39.85 0.25 44.8 0.25 44.8 0.25 44.8 0.25 44.8 11.53 44.8 11.53 44.8 12.88 45.9 13.98 47.25 13.98 48.6 13.98 49.7 12.88 49.7 11.53 49.7 11.53 49.7 0.25 49.7 0.25 49.7 0.25 54.65 0.25 54.65 0.25 54.65 0.25 54.65 11.6 54.65 11.6 54.65 15.73 51.32 19 47.25 19ZM 27.57 19C 22.4 19 18.22 14.83 18.22 9.65 18.22 4.48 22.4 0.25 27.57 0.25 32.75 0.25 36.94 4.48 36.94 9.65 36.94 14.83 32.75 19 27.57 19ZM 27.57 5.15C 25.12 5.15 23.12 7.15 23.12 9.63 23.12 12.08 25.12 14.1 27.57 14.1 30.05 14.1 32.05 12.08 32.05 9.63 32.05 7.15 30.05 5.15 27.57 5.15ZM 10.15 19C 10.15 19 0.9 19 0.9 19 0.9 19 0.9 0.25 0.9 0.25 0.9 0.25 9.17 0.25 9.17 0.25 12.17 0.25 14.72 2.83 14.72 5.83 14.72 7.1 14.25 8.28 13.52 9.2 14.8 10.23 15.65 11.8 15.65 13.5 15.65 16.48 13.12 19 10.15 19ZM 8.2 4.33C 8.2 4.33 5.82 4.33 5.82 4.33 5.82 4.33 5.82 7.58 5.82 7.58 5.82 7.58 8.2 7.58 8.2 7.58 9.1 7.58 9.82 6.85 9.82 5.95 9.82 5.05 9.1 4.33 8.2 4.33ZM 9.12 11.7C 9.12 11.7 5.82 11.7 5.82 11.7 5.82 11.7 5.82 14.95 5.82 14.95 5.82 14.95 9.12 14.95 9.12 14.95 10.02 14.95 10.75 14.23 10.75 13.33 10.75 12.43 9.97 11.7 9.12 11.7Z" fill="rgb(255,255,255)" filter="url(#filter0)"/></svg>