<svg id="Group.svg" xmlns="http://www.w3.org/2000/svg" width="169.625" height="25.62" viewBox="0 0 169.625 25.62">
  <defs>
    <style>
      .cls-1 {
        fill: #3b5998;
      }

      .cls-2 {
        fill: #fff;
        fill-rule: evenodd;
      }

      .cls-3 {
        fill: #26a6d1;
      }

      .cls-4 {
        fill: #0e76a8;
      }

      .cls-5 {
        fill: #86c9ef;
      }

      .cls-6 {
        fill: #3f729b;
      }
    </style>
  </defs>
  <g id="_facebook" data-name=" facebook">
    <circle id="base" class="cls-1" cx="12.813" cy="12.81" r="12.813"/>
    <path id="f" class="cls-2" d="M612.558,4621.01h1.65v-2.44h-1.939v0.01c-2.349.09-2.831,1.41-2.873,2.8h0v1.21h-1.6v2.39h1.6v6.39H611.8v-6.39h1.975l0.38-2.39H611.8v-0.73A0.789,0.789,0,0,1,612.558,4621.01Z" transform="translate(-598.188 -4612.19)"/>
  </g>
  <g id="twitter">
    <circle id="base-2" data-name="base" class="cls-3" cx="48.813" cy="12.81" r="12.813"/>
    <path id="bird" class="cls-2" d="M655,4620.82a6.3,6.3,0,0,1-1.792.48,3.07,3.07,0,0,0,1.372-1.68,6.4,6.4,0,0,1-1.981.74,3.155,3.155,0,0,0-2.276-.96,3.078,3.078,0,0,0-3.12,3.03,2.936,2.936,0,0,0,.081.69,8.967,8.967,0,0,1-6.43-3.16,2.91,2.91,0,0,0-.422,1.52,3,3,0,0,0,1.388,2.52,3.193,3.193,0,0,1-1.413-.38v0.04a3.054,3.054,0,0,0,2.5,2.97,3.176,3.176,0,0,1-.822.1,3.769,3.769,0,0,1-.587-0.05,3.108,3.108,0,0,0,2.914,2.1,6.4,6.4,0,0,1-3.874,1.3,6.089,6.089,0,0,1-.744-0.05,9.024,9.024,0,0,0,4.782,1.37,8.683,8.683,0,0,0,8.874-8.62c0-.13,0-0.26-0.008-0.39A6.257,6.257,0,0,0,655,4620.82Z" transform="translate(-598.188 -4612.19)"/>
  </g>
  <g id="linkedin">
    <circle id="base-3" data-name="base" class="cls-4" cx="84.813" cy="12.81" r="12.813"/>
    <path id="in" class="cls-2" d="M677.412,4629.79h2.4v-7.99h-2.4v7.99Zm9.338-8.27a3.616,3.616,0,0,0-2.942,1.36v-1.11H681.4v8.02h2.406v-4.34a1.907,1.907,0,0,1,1.891-1.81c1.051,0,1.309.9,1.309,1.79v4.36h2.4v-4.54C689.406,4622.1,687.914,4621.52,686.75,4621.52Zm-8.15-2.92a1.2,1.2,0,1,1-1.2,1.2A1.2,1.2,0,0,1,678.6,4618.6Z" transform="translate(-598.188 -4612.19)"/>
  </g>
  <g id="vimeo">
    <circle id="base-4" data-name="base" class="cls-5" cx="156.813" cy="12.81" r="12.813"/>
    <path id="v" class="cls-2" d="M747.8,4622.6c1.2-.96,2.9-3.05,4.226-3.05s1.651,1.56,1.832,2.98,0.7,4.53,1.4,4.53,2.3-2.75,2.211-3.81-1.248-.9-1.885-0.6c0.585-2.12,1.937-3.25,3.666-3.25s2.146,1.22,2.146,2.72c0,2.28-4.629,9.28-7.424,9.28-1.73,0-2.158-2.55-2.509-3.81s-1.041-4.57-1.847-4.78a3.17,3.17,0,0,0-1.2.65Z" transform="translate(-598.188 -4612.19)"/>
  </g>
  <g id="instagramm">
    <circle id="base-5" data-name="base" class="cls-6" cx="120.813" cy="12.81" r="12.813"/>
    <path id="icon" class="cls-2" d="M723.418,4617.8h-8.836a2.787,2.787,0,0,0-2.784,2.78v8.84a2.787,2.787,0,0,0,2.784,2.78h8.836a2.787,2.787,0,0,0,2.784-2.78v-8.84A2.787,2.787,0,0,0,723.418,4617.8Zm0.877,1.61h0.315v2.39l-2.408.01-0.008-2.4h2.1ZM719,4622.59a2.41,2.41,0,1,1-2.41,2.41A2.421,2.421,0,0,1,719,4622.59Zm5.624,6.65a1.383,1.383,0,0,1-1.381,1.38h-8.511a1.382,1.382,0,0,1-1.381-1.38v-5.84h2a4.566,4.566,0,0,0-.29,1.6,3.939,3.939,0,1,0,7.877,0,4.566,4.566,0,0,0-.29-1.6h1.976v5.84Z" transform="translate(-598.188 -4612.19)"/>
  </g>
</svg>
