<svg id="SOCIAL.svg" xmlns="http://www.w3.org/2000/svg" width="109.812" height="28.82" viewBox="0 0 109.812 28.82">
  <defs>
    <style>
      .cls-1 {
        fill: #3b5998;
      }

      .cls-2 {
        fill: #fff;
        opacity: 0.75;
      }

      .cls-2, .cls-3, .cls-4 {
        fill-rule: evenodd;
      }

      .cls-3 {
        fill: #26a6d1;
      }

      .cls-4 {
        fill: #3f729b;
      }
    </style>
  </defs>
  <g id="_facebook" data-name=" facebook">
    <circle id="base" class="cls-1" cx="54.906" cy="14.41" r="14.406"/>
    <path id="f" class="cls-2" d="M313.753,2556.51h1.856v-2.74h-2.181v0.01c-2.643.09-3.185,1.58-3.233,3.14h0v1.37h-1.8v2.68h1.8v7.2H312.9v-7.2h2.222l0.428-2.68H312.9v-0.83A0.887,0.887,0,0,1,313.753,2556.51Z" transform="translate(-257.094 -2546.59)"/>
  </g>
  <g id="twitter">
    <path id="base-2" data-name="base" class="cls-3" d="M352.5,2546.6a14.4,14.4,0,1,1-14.4,14.4A14.4,14.4,0,0,1,352.5,2546.6Z" transform="translate(-257.094 -2546.59)"/>
    <path id="bird" class="cls-2" d="M361.5,2556.3a7.481,7.481,0,0,1-2.015.54,3.464,3.464,0,0,0,1.543-1.89,7.1,7.1,0,0,1-2.229.83,3.566,3.566,0,0,0-2.561-1.08,3.463,3.463,0,0,0-3.509,3.41,3.247,3.247,0,0,0,.091.77,10.05,10.05,0,0,1-7.233-3.55,3.284,3.284,0,0,0-.476,1.71,3.372,3.372,0,0,0,1.562,2.83,3.537,3.537,0,0,1-1.59-.42v0.04a3.433,3.433,0,0,0,2.815,3.34,3.528,3.528,0,0,1-.925.12,3.585,3.585,0,0,1-.66-0.06,3.491,3.491,0,0,0,3.278,2.36,7.137,7.137,0,0,1-4.358,1.46,5.8,5.8,0,0,1-.837-0.05,10.118,10.118,0,0,0,5.379,1.53,9.763,9.763,0,0,0,9.984-9.69c0-.14,0-0.29-0.009-0.44A7.052,7.052,0,0,0,361.5,2556.3Z" transform="translate(-257.094 -2546.59)"/>
  </g>
  <g id="instagramm">
    <path id="base-3" data-name="base" class="cls-4" d="M271.5,2546.6a14.4,14.4,0,1,1-14.4,14.4A14.4,14.4,0,0,1,271.5,2546.6Z" transform="translate(-257.094 -2546.59)"/>
    <path id="icon" class="cls-2" d="M276.471,2552.9h-9.942a3.131,3.131,0,0,0-3.131,3.13v9.94a3.131,3.131,0,0,0,3.131,3.13h9.942a3.132,3.132,0,0,0,3.131-3.13v-9.94A3.132,3.132,0,0,0,276.471,2552.9Zm0.986,1.81h0.354v2.69l-2.709.01-0.009-2.7h2.364Zm-5.957,3.58a2.71,2.71,0,1,1-2.711,2.71A2.72,2.72,0,0,1,271.5,2558.29Zm6.327,7.48a1.559,1.559,0,0,1-1.553,1.56H266.7a1.559,1.559,0,0,1-1.553-1.56v-6.58h2.25a5.233,5.233,0,0,0-.326,1.81,4.431,4.431,0,0,0,8.862,0,5.21,5.21,0,0,0-.327-1.81h2.223v6.58Z" transform="translate(-257.094 -2546.59)"/>
  </g>
</svg>
